<?xml version="1.0" encoding="utf-8"?>
<!-- Generator: Adobe Illustrator 18.1.1, SVG Export Plug-In . SVG Version: 6.00 Build 0)  -->
<svg version="1.1" id="Layer_1" xmlns="http://www.w3.org/2000/svg" xmlns:xlink="http://www.w3.org/1999/xlink" x="0px" y="0px"
	 viewBox="0 0 36 36" style="enable-background:new 0 0 36 36;" xml:space="preserve">
<path d="M28.8,14.1C28.7,14.1,28.7,14.1,28.8,14.1H1c-0.6,0-1,0.4-1,1C0,30.9,6.8,36,10.1,36h9.4c2.2,0,5-1.7,7.1-5.7H28
	c5-0.1,8-3.9,8-7.5v-2.2C36,16.8,33.1,14.2,28.8,14.1z M19.6,34h-9.4C7.6,34,2.3,29.5,2,16.1h25.7c-0.1,5.8-1.1,9.8-2.5,12.7
	c-0.1,0.1-0.1,0.2-0.2,0.3C23.3,32.6,21,34,19.6,34z M34,22.8c0,2.7-2.2,5.5-6,5.5h-0.4c1.2-3,2-7,2.1-12.1c2.3,0.3,4.3,1.6,4.3,4.4
	V22.8z M14.7,11.2c0.6,0,1-0.4,1-1V3.7c0-0.6-0.4-1-1-1s-1,0.4-1,1v6.5C13.7,10.7,14.2,11.2,14.7,11.2z M9.1,11.2c0.6,0,1-0.4,1-1
	V7.5c0-0.6-0.4-1-1-1s-1,0.4-1,1v2.6C8.1,10.7,8.6,11.2,9.1,11.2z M20.6,7.4c0.6,0,1-0.5,1-1V1c0-0.6-0.5-1-1-1s-1,0.5-1,1v5.3
	C19.5,6.9,20,7.4,20.6,7.4z"/>
</svg>
