<?xml version="1.0" encoding="utf-8"?>
<!-- Generator: Adobe Illustrator 18.1.1, SVG Export Plug-In . SVG Version: 6.00 Build 0)  -->
<svg version="1.1" id="Layer_1" xmlns="http://www.w3.org/2000/svg" xmlns:xlink="http://www.w3.org/1999/xlink" x="0px" y="0px"
	 viewBox="0 0 36 36" style="enable-background:new 0 0 36 36;" xml:space="preserve">
<path d="M11.2,13.3c1.1,0,2,0.9,2,2s-0.9,2-2,2s-2-0.9-2-2S10.1,13.3,11.2,13.3z M18,13.3c1.1,0,2,0.9,2,2s-0.9,2-2,2s-2-0.9-2-2
	S16.9,13.3,18,13.3z M24.8,13.3c1.1,0,2,0.9,2,2s-0.9,2-2,2s-2-0.9-2-2S23.7,13.3,24.8,13.3z M33.1,2.7H2.9C1.3,2.7,0,4,0,5.6V25
	c0,1.6,1.3,2.9,2.9,2.9h3.6v3.4c0,1.1,0.9,2,2,2c0.4,0,0.8-0.1,1.1-0.4l7.1-5H33c1.6,0,2.9-1.3,2.9-2.9V5.6C36,4,34.7,2.7,33.1,2.7z
	 M34,25c0,0.5-0.4,0.9-0.9,0.9h-17l-7.6,5.4v-5.4H2.9C2.4,25.9,2,25.5,2,25V5.6c0-0.5,0.4-0.9,0.9-0.9h30.2c0.5,0,0.9,0.4,0.9,0.9
	C34,5.6,34,25,34,25z"/>
</svg>
