<?xml version="1.0" encoding="utf-8"?>
<!-- Generator: Adobe Illustrator 18.1.1, SVG Export Plug-In . SVG Version: 6.00 Build 0)  -->
<svg version="1.1" id="Layer_1" xmlns="http://www.w3.org/2000/svg" xmlns:xlink="http://www.w3.org/1999/xlink" x="0px" y="0px"
	 viewBox="0 0 36 36" style="enable-background:new 0 0 36 36;" xml:space="preserve">
<path d="M34,32.7c0,0.7-0.6,1.3-1.3,1.3H3.3C2.6,34,2,33.4,2,32.7V3.3C2,2.6,2.6,2,3.3,2h19.3V0H3.3C1.5,0,0,1.5,0,3.3v29.5
	C0,34.5,1.5,36,3.3,36h29.5c1.8,0,3.3-1.5,3.3-3.3V16.4h-2L34,32.7L34,32.7z M14.3,16l-1.6,7l7.5-1.5L34.5,7.2c1.5-1.5,1.5-4,0-5.5
	l0,0c-1.5-1.5-3.9-1.5-5.5,0L14.3,16z M19.3,19.7l-3.9,0.8l0.8-3.4l14.3-14c0.7-0.7,1.9-0.7,2.7,0l0,0c0.7,0.7,0.7,1.9,0,2.7
	L19.3,19.7z"/>
</svg>
