<?xml version="1.0" encoding="utf-8"?>
<!-- Generator: Adobe Illustrator 18.1.1, SVG Export Plug-In . SVG Version: 6.00 Build 0)  -->
<svg version="1.1" id="Layer_1" xmlns="http://www.w3.org/2000/svg" xmlns:xlink="http://www.w3.org/1999/xlink" x="0px" y="0px"
	 viewBox="0 0 36 36" style="enable-background:new 0 0 36 36;" xml:space="preserve">
<path d="M33.1,0H2.9C1.3,0,0,1.3,0,2.9v30.2C0,34.7,1.3,36,2.9,36h30.2c1.6,0,2.9-1.3,2.9-2.9V2.9C36,1.3,34.7,0,33.1,0z M34,33.1
	c0,0.5-0.4,0.9-0.9,0.9H2.9C2.4,34,2,33.6,2,33.1V2.9C2,2.4,2.4,2,2.9,2h30.2C33.6,2,34,2.4,34,2.9V33.1z M18.4,9.7
	c-2.7,0-5,2.2-5,5c0,0.5,0.4,0.9,0.9,0.9s0.9-0.4,0.9-0.9c0-1.7,1.4-3.1,3.1-3.1s3.1,1.4,3.1,3.1c0,1.5-0.8,2.2-1.8,3.1
	s-2.2,1.9-2.5,3.8c-0.1,0.5,0.3,1,0.8,1.1c0.1,0,0.1,0,0.2,0c0.5,0,0.9-0.3,0.9-0.8c0.2-1.2,1-1.9,1.8-2.6c1.1-1,2.5-2.1,2.5-4.5
	C23.3,11.9,21.1,9.7,18.4,9.7z M18.1,24.4L18.1,24.4c-0.7,0-1.3,0.6-1.3,1.3l0,0c0,0.7,0.6,1.3,1.3,1.3l0,0c0.7,0,1.3-0.6,1.3-1.3
	l0,0C19.4,24.9,18.8,24.4,18.1,24.4z"/>
</svg>
