<?xml version="1.0" encoding="utf-8"?>
<!-- Generator: Adobe Illustrator 18.1.1, SVG Export Plug-In . SVG Version: 6.00 Build 0)  -->
<svg version="1.1" id="Layer_1" xmlns="http://www.w3.org/2000/svg" xmlns:xlink="http://www.w3.org/1999/xlink" x="0px" y="0px"
	 viewBox="0 0 36 36" style="enable-background:new 0 0 36 36;" xml:space="preserve">
<path d="M32.9,2.5H17c-0.6,0-1,0.4-1,1s0.4,1,1,1h15.9c0.6,0,1.1,0.5,1.1,1l-1.3,24.7c0,0.4-0.3,0.7-0.7,0.7V9.3
	c0-1.6-1.3-2.9-2.9-2.9H15.5c-0.5,0-0.9-0.4-0.9-0.9V4.4c0-1.6-1.3-2.9-2.9-2.9H2.9C1.3,1.5,0,2.8,0,4.4v27.3c0,1.6,1.3,2.9,2.9,2.9
	h26.2c1.1,0,2.1-0.7,2.6-1.6h0.2c1.5,0,2.7-1.1,2.8-2.6L36,5.6C36,3.9,34.6,2.5,32.9,2.5z M29.1,32.5H2.9C2.4,32.5,2,32,2,31.6V4.4
	c0-0.5,0.4-0.9,0.9-0.9h8.8c0.5,0,0.9,0.4,0.9,0.9v1.1c0,1.6,1.3,2.9,2.9,2.9H29c0.5,0,0.9,0.4,0.9,0.9v22.4
	C30,32,29.6,32.5,29.1,32.5z"/>
</svg>
