<?xml version="1.0" encoding="utf-8"?>
<!-- Generator: Adobe Illustrator 18.1.1, SVG Export Plug-In . SVG Version: 6.00 Build 0)  -->
<svg version="1.1" id="Layer_1" xmlns="http://www.w3.org/2000/svg" xmlns:xlink="http://www.w3.org/1999/xlink" x="0px" y="0px"
	 viewBox="0 0 36 36" style="enable-background:new 0 0 36 36;" xml:space="preserve">
<path d="M33.1,0H9.7C8.1,0,6.8,1.3,6.8,2.9V21c0,1.6,1.3,2.9,2.9,2.9h12l7.5,5c0.2,0.1,0.4,0.2,0.6,0.2s0.3,0,0.5-0.1
	c0.3-0.2,0.5-0.5,0.5-0.9V24h2.3c1.6,0,2.9-1.3,2.9-2.9V2.9C36,1.3,34.7,0,33.1,0z M34,21.1c0,0.5-0.4,0.9-0.9,0.9h-3.3
	c-0.6,0-1,0.4-1,1v3.3l-6.2-4.1C22.4,22.1,22.2,22,22,22H9.7c-0.5,0-0.9-0.4-0.9-0.9V2.9C8.8,2.4,9.2,2,9.7,2H33c0.6,0,1,0.4,1,0.9
	V21.1z M19.1,29.6c0,0.4-0.3,0.7-0.7,0.7H12c-0.2,0-0.4,0.1-0.6,0.2l-3.7,2.6v-1.8c0-0.6-0.4-1-1-1H2.9c-0.5,0-0.9-0.4-0.9-0.9V12.1
	c0-0.5,0.4-0.9,0.9-0.9h2.3v-2H2.9C1.3,9.2,0,10.5,0,12.1v17.2c0,1.6,1.3,2.9,2.9,2.9h2.7V35c0,0.4,0.2,0.7,0.5,0.9
	C6.3,36,6.5,36,6.7,36s0.4-0.1,0.6-0.2l5.1-3.6h6.1c1.5,0,2.7-1.2,2.7-2.7v-3.3h-2v3.4H19.1z"/>
</svg>
