<?xml version="1.0" encoding="utf-8"?>
<!-- Generator: Adobe Illustrator 18.1.1, SVG Export Plug-In . SVG Version: 6.00 Build 0)  -->
<svg version="1.1" id="Layer_1" xmlns="http://www.w3.org/2000/svg" xmlns:xlink="http://www.w3.org/1999/xlink" x="0px" y="0px"
	 viewBox="0 0 36 36" style="enable-background:new 0 0 36 36;" xml:space="preserve">
<path d="M10.9,16.4c2.3,0,4.2-1.9,4.2-4.1s-1.9-4.1-4.2-4.1s-4.1,1.9-4.1,4.1S8.6,16.4,10.9,16.4z M10.9,10.1c1.2,0,2.2,1,2.2,2.1
	s-1,2.1-2.2,2.1s-2.1-1-2.1-2.1S9.7,10.1,10.9,10.1z M33.2,0H2.8C1.3,0,0,1.3,0,2.9v30.3C0,34.7,1.3,36,2.8,36h2.9h18h9.5
	c1.5,0,2.8-1.3,2.8-2.8V2.9C36,1.3,34.7,0,33.2,0z M2,33.1V2.9C2,2.4,2.4,2,2.8,2h30.4C33.6,2,34,2.4,34,2.9V9
	c-0.7-0.6-1.5-0.9-2.4-0.8c-1.2,0-2.2,0.6-2.9,1.6L16.6,27.6l-1.9-2.3C14,24.5,13,24,11.9,24l0,0c-1.1,0-2.1,0.5-2.8,1.3L2.9,34H2.8
	C2.4,34,2,33.6,2,33.1z M5.7,34H5.4l5.3-7.4c0.3-0.4,0.8-0.6,1.2-0.6s0.9,0.2,1.2,0.6l6.2,7.4H5.7z M33.2,34H22l-4-4.8l12.4-18.3
	c0.3-0.4,0.8-0.7,1.3-0.7c0.5,0,1,0.2,1.3,0.6l1,1.4v21C34,33.6,33.6,34,33.2,34z"/>
</svg>
