<?xml version="1.0" encoding="utf-8"?>
<!-- Generator: Adobe Illustrator 18.1.1, SVG Export Plug-In . SVG Version: 6.00 Build 0)  -->
<svg version="1.1" id="Layer_1" xmlns="http://www.w3.org/2000/svg" xmlns:xlink="http://www.w3.org/1999/xlink" x="0px" y="0px"
	 viewBox="0 0 36 36" style="enable-background:new 0 0 36 36;" xml:space="preserve">
<path d="M33.3,3.3h-0.5V2.7C32.7,1.2,31.5,0,30,0H2.7C1.2,0,0,1.2,0,2.7V30c0,1.5,1.2,2.7,2.7,2.7h0.5v0.5C3.3,34.8,4.5,36,6,36
	h27.3c1.5,0,2.7-1.2,2.7-2.7V6C36,4.5,34.8,3.3,33.3,3.3z M2.7,30.7C2.3,30.7,2,30.4,2,30V2.7C2,2.3,2.3,2,2.7,2H30
	c0.4,0,0.7,0.3,0.7,0.7v0.5H6C4.5,3.3,3.3,4.5,3.3,6v24.8L2.7,30.7L2.7,30.7z M34,33.3c0,0.4-0.3,0.7-0.7,0.7H6
	c-0.4,0-0.7-0.3-0.7-0.7V6c0-0.4,0.3-0.7,0.7-0.7h27.3C33.7,5.3,34,5.6,34,6V33.3z M21.2,19.1l-3.3,3.2l-4.7-4.7l2.4-2.3l1.1,1.1
	l1.4-1.4L17,13.9c-0.8-0.8-2.1-0.8-2.9,0l-2.3,2.3c-0.4,0.4-0.6,0.9-0.6,1.5s0.2,1.1,0.6,1.5l4.7,4.7c0.4,0.4,0.9,0.6,1.5,0.6
	s1.1-0.2,1.5-0.6l3.2-3.2L21.2,19.1z M22.7,15.6c-0.8-0.8-2.1-0.8-2.9,0l-3.2,3.2l1.4,1.4l3.3-3.2l4.7,4.7L23.7,24
	c0,0-0.1,0-0.2-0.1l-1.2-1.2l-1.4,1.4l1.2,1.2c0.5,0.5,1,0.7,1.6,0.7c0.5,0,1-0.2,1.4-0.6l2.3-2.3c0.4-0.4,0.6-0.9,0.6-1.5
	s-0.2-1.1-0.6-1.5L22.7,15.6z"/>
</svg>
