<?xml version="1.0" encoding="utf-8"?>
<!-- Generator: Adobe Illustrator 18.1.1, SVG Export Plug-In . SVG Version: 6.00 Build 0)  -->
<svg version="1.1" id="Layer_1" xmlns="http://www.w3.org/2000/svg" xmlns:xlink="http://www.w3.org/1999/xlink" x="0px" y="0px"
	 viewBox="0 0 36 36" style="enable-background:new 0 0 36 36;" xml:space="preserve">
<path d="M33.3,5.3h-0.5V2.7C32.7,1.2,31.5,0,30,0H2.7C1.2,0,0,1.2,0,2.7V30c0,1.5,1.2,2.7,2.7,2.7h0.5v0.5C3.3,34.8,4.5,36,6,36
	h27.3c1.5,0,2.7-1.2,2.7-2.7V8C36,6.5,34.8,5.3,33.3,5.3z M33.3,7.3C33.7,7.3,34,7.6,34,8v3.2l-12.9,8.6c-0.9,0.6-2,0.6-2.9,0
	L5.3,11.2V8c0-0.4,0.3-0.7,0.7-0.7h24.8h2H33.3z M2.7,30.7C2.3,30.7,2,30.4,2,30V2.7C2,2.3,2.3,2,2.7,2H30c0.4,0,0.7,0.3,0.7,0.7
	v2.5H6C4.5,5.3,3.3,6.5,3.3,8v22.8L2.7,30.7L2.7,30.7z M33.3,34H6c-0.4,0-0.7-0.3-0.7-0.7V13.6l11.8,7.9c0.8,0.5,1.7,0.8,2.6,0.8
	s1.8-0.3,2.6-0.8L34,13.6v19.7C34,33.7,33.7,34,33.3,34z"/>
</svg>
