<?xml version="1.0" encoding="utf-8"?>
<!-- Generator: Adobe Illustrator 18.1.1, SVG Export Plug-In . SVG Version: 6.00 Build 0)  -->
<svg version="1.1" id="Layer_1" xmlns="http://www.w3.org/2000/svg" xmlns:xlink="http://www.w3.org/1999/xlink" x="0px" y="0px"
	 viewBox="0 0 36 36" style="enable-background:new 0 0 36 36;" xml:space="preserve">
<path d="M33.1,0H9.4C7.8,0,6.5,1.3,6.5,3v12.6H2.9c-1.6,0-2.9,1.3-2.9,3v12.9c0,2.4,1.7,4.3,3.9,4.5l0,0h29.2c1.6,0,2.9-1.3,2.9-3
	V8.4v-2V3C36,1.3,34.7,0,33.1,0z M2,31.5V18.6c0-0.6,0.4-1,0.9-1h3.6v5.5v2v6.4c0,1.4-1,2.5-2.3,2.5C3,34,2,32.9,2,31.5z M34,33
	c0,0.6-0.4,1-0.9,1H7.8c0.5-0.7,0.7-1.6,0.7-2.5v-6.4v-2v-5.5v-2V8.4H34V33z M8.5,6.4V3c0-0.6,0.4-1,0.9-1h23.8C33.6,2,34,2.4,34,3
	v3.4H8.5z M23.7,13.1h5.5v2h-5.5V13.1z M23.7,17.3h5.5v2h-5.5V17.3z M23.7,21.5h5.5v2h-5.5V21.5z M21,21.9v-8.8h-7.7v8.8H21z
	 M15.3,15.1H19v4.8h-3.7V15.1z"/>
</svg>
