<?xml version="1.0" encoding="utf-8"?>
<!-- Generator: Adobe Illustrator 18.1.1, SVG Export Plug-In . SVG Version: 6.00 Build 0)  -->
<svg version="1.1" id="Layer_1" xmlns="http://www.w3.org/2000/svg" xmlns:xlink="http://www.w3.org/1999/xlink" x="0px" y="0px"
	 viewBox="0 0 36 36" style="enable-background:new 0 0 36 36;" xml:space="preserve">
<path d="M13.5,21.2h13v2h-13V21.2z M13.5,26h7.3v2h-7.3V26z M33.9,13.1v-0.2l-0.2-0.2c-0.1-0.1-0.1-0.2-0.2-0.2l-4.2-4.3l-4-4.1l0,0
	L25,3.7h-3.1l-2.7-2.8C18.6,0.3,17.8,0,17,0H5.1c-1.7,0-3,1.4-3,3v26.2c0,1.7,1.4,3,3,3h1.7V33c0,1.7,1.4,3,3,3h21c1.7,0,3-1.4,3-3
	V13.3v-0.1C33.9,13.2,33.9,13.1,33.9,13.1z M25.5,7.2l2.8,2.8l2.2,2.2h-5V7.2z M6.8,6.8v23.5H5.1c-0.6,0-1-0.5-1-1V3
	c0-0.6,0.5-1,1-1H17c0.3,0,0.5,0.1,0.7,0.3l1.4,1.4H9.9C8.2,3.7,6.8,5.1,6.8,6.8z M30.9,34h-21c-0.6,0-1-0.5-1-1V6.8
	c0-0.6,0.5-1,1-1h13.7v7.5c0,0.6,0.4,1,1,1H32V33C31.9,33.5,31.4,34,30.9,34z"/>
</svg>
