<?xml version="1.0" encoding="utf-8"?>
<!-- Generator: Adobe Illustrator 18.1.1, SVG Export Plug-In . SVG Version: 6.00 Build 0)  -->
<svg version="1.1" id="Layer_1" xmlns="http://www.w3.org/2000/svg" xmlns:xlink="http://www.w3.org/1999/xlink" x="0px" y="0px"
	 viewBox="0 0 36 36" style="enable-background:new 0 0 36 36;" xml:space="preserve">
<path d="M25.7,0.4H10.3c-1.6,0-2.9,1.3-2.9,2.9v2c0,1.6,1.3,2.9,2.9,2.9h0.3v7.7l-2.7,3.2l-0.2,0.3c-0.4,1-0.3,2.2,0.3,3.1
	S9.6,24,10.7,24h3.7L17,35.6h2l2.5-11.7h3.7c1.1,0,2.1-0.5,2.7-1.5c0.6-0.9,0.7-2.1,0.3-3.1l-0.1-0.1l-2.8-3.3V11h-2v5.6l3.1,3.6
	c0.1,0.4,0,0.8-0.2,1.1c-0.2,0.4-0.6,0.6-1.1,0.6H10.8c-0.4,0-0.8-0.2-1.1-0.6c-0.2-0.3-0.3-0.7-0.2-1.1l3.1-3.6V8.2h13.1
	c1.6,0,2.9-1.3,2.9-2.9v-2C28.6,1.7,27.3,0.4,25.7,0.4z M18,30.6L16.6,24h2.8L18,30.6z M26.6,5.3c0,0.5-0.4,0.9-0.9,0.9H10.3
	c-0.5,0-0.9-0.4-0.9-0.9v-2c0-0.5,0.4-0.9,0.9-0.9h15.5c0.5,0,0.9,0.4,0.9,0.9L26.6,5.3L26.6,5.3z"/>
</svg>
