<?xml version="1.0" encoding="utf-8"?>
<!-- Generator: Adobe Illustrator 18.1.1, SVG Export Plug-In . SVG Version: 6.00 Build 0)  -->
<svg version="1.1" id="Layer_1" xmlns="http://www.w3.org/2000/svg" xmlns:xlink="http://www.w3.org/1999/xlink" x="0px" y="0px"
	 viewBox="0 0 36 36" style="enable-background:new 0 0 36 36;" xml:space="preserve">
<path d="M33.9,33.1c0,0.5-0.4,0.9-0.9,0.9H2.9C2.4,34,2,33.6,2,33.1V2.9C2,2.4,2.4,2,2.9,2h14.6V0H2.9C1.3,0,0,1.3,0,2.9V33
	c0,1.7,1.3,3,2.9,3H33c1.6,0,2.9-1.3,2.9-2.9V18.5h-2V33.1z M8.4,27.7l1.5-0.3c1.2-0.2,5.1-1.1,6.2-2.2c1.4-1.4,1.4-3.7,0-5.1
	s-3.8-1.4-5.1,0c-1.2,1.2-2,5-2.2,6.2L8.4,27.7z M12.4,21.4c0.3-0.3,0.7-0.5,1.2-0.5s0.8,0.2,1.2,0.5c0.6,0.6,0.6,1.7,0,2.3
	c-0.4,0.4-2,0.9-3.7,1.4C11.5,23.4,12,21.8,12.4,21.4z M35.3,0.7L35,0.5c-0.2-0.1-5.5-2.1-11.3,3.8c-1.4,1.4-2.5,2.9-3.4,4.5
	c-1.2,0.8-5.8,3.9-5.8,3.9c-0.3,0.2-0.5,0.5-0.4,0.9s0.2,0.7,0.6,0.8l0.3,0.2c0.6,0.3,1.7,0.9,2.5,1.3c-0.3,1.2-0.4,2-0.4,2.1
	l-0.2,1.3l1.3-0.1c0.1,0,1-0.1,2.3-0.4c0.4,0.7,0.9,1.8,1.2,2.4l0.3,0.6c0.1,0.3,0.4,0.5,0.8,0.6h0.1c0.3,0,0.6-0.2,0.8-0.4
	c0,0,3.2-4.8,4-5.8c1.5-0.9,3.1-1.9,4.5-3.3C38,7.1,35.8,1.5,35.7,1.3L35.3,0.7z M30.6,11.3c-3,3-7,4.5-9.7,5.2
	c-0.1,0-0.2,0-0.2,0.1l0,0c-0.6,0.1-1,0.2-1.5,0.3c0.2-0.7,0.4-1.7,0.8-2.8s1.1-2.7,1.9-4.1l0,0c0.8-1.5,1.8-3,3.1-4.3
	c3-3,5.6-3.6,7.4-3.6c0.6,0,1.1,0.1,1.4,0.1C34.1,3.5,34.6,7.3,30.6,11.3z"/>
</svg>
