<?xml version="1.0" encoding="utf-8"?>
<!-- Generator: Adobe Illustrator 18.1.1, SVG Export Plug-In . SVG Version: 6.00 Build 0)  -->
<svg version="1.1" id="Layer_1" xmlns="http://www.w3.org/2000/svg" xmlns:xlink="http://www.w3.org/1999/xlink" x="0px" y="0px"
	 viewBox="0 0 36 36" style="enable-background:new 0 0 36 36;" xml:space="preserve">
<path d="M33,7.9h-1.2l-1.4-5.6c-0.2-0.8-0.7-1.5-1.4-1.9c-0.7-0.4-1.4-0.5-2.2-0.3L3.3,6.9C2,7.2,1.1,8.1,0.5,9.2
	C0.2,9.7,0,10.2,0,10.9v0.5v7.2V33c0,1.6,1.3,3,3,3h30c1.6,0,3-1.3,3-3V10.9C36,9.2,34.7,7.9,33,7.9z M27.4,2c0.2,0,0.4,0,0.6,0.1
	s0.4,0.4,0.5,0.7l1.3,5.1H6.9L27.4,2z M34,33c0,0.5-0.4,1-1,1H3c-0.5,0-1-0.4-1-1V18.6v-7.2c0-0.4,0.1-0.8,0.2-1.1
	C2.4,10,2.7,9.9,3,9.9h30c0.5,0,1,0.4,1,1V33z M30.8,18.1c0.7,0,1.2,0.5,1.2,1.2s-0.5,1.2-1.2,1.2s-1.2-0.5-1.2-1.2
	S30.1,18.1,30.8,18.1z M30.8,22.6c0.7,0,1.2,0.5,1.2,1.2S31.5,25,30.8,25s-1.2-0.5-1.2-1.2S30.1,22.6,30.8,22.6z"/>
</svg>
