<?xml version="1.0" encoding="utf-8"?>
<!-- Generator: Adobe Illustrator 18.1.1, SVG Export Plug-In . SVG Version: 6.00 Build 0)  -->
<svg version="1.1" id="Layer_1" xmlns="http://www.w3.org/2000/svg" xmlns:xlink="http://www.w3.org/1999/xlink" x="0px" y="0px"
	 viewBox="0 0 36 36" style="enable-background:new 0 0 36 36;" xml:space="preserve">
<path d="M33.4,3.4H19h-2H2.6C1.2,3.4,0,4.5,0,6v24c0,1.4,1.2,2.6,2.6,2.6H17h2h14.4c1.4,0,2.6-1.2,2.6-2.6V6
	C36,4.5,34.8,3.4,33.4,3.4z M17,30.6H2.6C2.3,30.6,2,30.4,2,30V6c0-0.3,0.3-0.6,0.6-0.6H17V30.6z M34,30c0,0.3-0.3,0.6-0.6,0.6H19
	V5.4h14.4C33.7,5.4,34,5.6,34,6V30z M23.2,11.2h6.5v2h-6.5V11.2z M23.2,15.2h5.2v2h-5.2V15.2z M13.1,11.2H5.9v5.9H13v-5.9H13.1z
	 M11.1,15.2H7.9v-1.9H11v1.9H11.1z"/>
</svg>
