<?xml version="1.0" encoding="utf-8"?>
<!-- Generator: Adobe Illustrator 18.1.1, SVG Export Plug-In . SVG Version: 6.00 Build 0)  -->
<svg version="1.1" id="Layer_1" xmlns="http://www.w3.org/2000/svg" xmlns:xlink="http://www.w3.org/1999/xlink" x="0px" y="0px"
	 viewBox="0 0 36 36" style="enable-background:new 0 0 36 36;" xml:space="preserve">
<path d="M26.2,2h6.4L19,15.6l1.4,1.4L34,3.4v6.4h2V0h-9.8V2z M34,33.1c0,0.5-0.4,0.9-0.9,0.9H2.9C2.4,34,2,33.6,2,33.1V2.9
	C2,2.4,2.4,2,2.9,2h17.2V0H2.9C1.3,0,0,1.3,0,2.9V33c0,1.7,1.3,3,2.9,3H33c1.6,0,2.9-1.3,2.9-2.9V16.9h-2L34,33.1L34,33.1z
	 M19.2,19.1h1.9V21h-1.9V19.1z M14.9,19.1h1.9V21h-1.9V19.1z M14.9,15h1.9v1.9h-1.9V15z"/>
</svg>
