<?xml version="1.0" encoding="utf-8"?>
<!-- Generator: Adobe Illustrator 18.1.1, SVG Export Plug-In . SVG Version: 6.00 Build 0)  -->
<svg version="1.1" id="Layer_1" xmlns="http://www.w3.org/2000/svg" xmlns:xlink="http://www.w3.org/1999/xlink" x="0px" y="0px"
	 viewBox="0 0 36 36" style="enable-background:new 0 0 36 36;" xml:space="preserve">
<path d="M33.3,3.3h-0.5V2.7C32.7,1.2,31.5,0,30,0H2.7C1.2,0,0,1.2,0,2.7V30c0,1.5,1.2,2.7,2.7,2.7h0.5v0.5C3.3,34.8,4.5,36,6,36
	h27.3c1.5,0,2.7-1.2,2.7-2.7V6C36,4.5,34.8,3.3,33.3,3.3z M2.7,30.7C2.3,30.7,2,30.4,2,30V2.7C2,2.3,2.3,2,2.7,2H30
	c0.4,0,0.7,0.3,0.7,0.7v0.5H6C4.5,3.3,3.3,4.5,3.3,6v24.8L2.7,30.7L2.7,30.7z M34,33.3c0,0.4-0.3,0.7-0.7,0.7H6
	c-0.4,0-0.7-0.3-0.7-0.7V6c0-0.4,0.3-0.7,0.7-0.7h27.3C33.7,5.3,34,5.6,34,6V33.3z M20.6,18.6h2v8h-2V18.6z M12.6,22.6h2v4h-2V22.6z
	 M24.6,12.6h2v14h-2V12.6z M16.6,15.6h2v11h-2V15.6z"/>
</svg>
