<?xml version="1.0" encoding="utf-8"?>
<!-- Generator: Adobe Illustrator 18.1.1, SVG Export Plug-In . SVG Version: 6.00 Build 0)  -->
<svg version="1.1" id="Layer_1" xmlns="http://www.w3.org/2000/svg" xmlns:xlink="http://www.w3.org/1999/xlink" x="0px" y="0px"
	 viewBox="0 0 36 36" style="enable-background:new 0 0 36 36;" xml:space="preserve">
<path d="M33.6,28.9c-2.8-1.6-5.3-3-7.5-4.1c-2.3-1.2-2.9-2-3.1-2.8v-0.2c2.7-3.4,4.5-9,4.5-12.3c0-5.2-4.3-9.5-9.5-9.5
	S8.4,4.3,8.4,9.6c0,3.4,1.8,9,4.6,12.4v0.2c-0.2,0.7-0.7,1.5-3.1,2.7C7.7,26,5.2,27.4,2.4,29C1.1,29.7,0,31.6,0,33.2v0.4
	c0,0.9,0,1.5,0.5,2C0.8,36,1.1,36,1.6,36h32.8c0.5,0,0.8-0.1,1.1-0.4c0.5-0.5,0.5-1.1,0.5-2v-0.4C36,31.6,34.9,29.7,33.6,28.9z
	 M17.9,2.1c4.1,0,7.5,3.4,7.5,7.5c0,6.6-4.8,13.4-7.5,13.4s-7.5-6.7-7.5-13.4C10.4,5.5,13.8,2.1,17.9,2.1z M2,34c0-0.1,0-0.3,0-0.4
	v-0.4c0-1,0.8-2.2,1.4-2.6c2.7-1.6,5.2-2.9,7.4-4c2-1,3.2-2,3.8-3.1c1,0.9,2.2,1.4,3.4,1.4c1.2,0,2.4-0.5,3.5-1.4
	c0.6,1.2,1.8,2.1,3.8,3.2c2.1,1.1,4.6,2.4,7.4,4c0.6,0.4,1.4,1.6,1.4,2.6v0.4c0,0.1,0,0.3,0,0.4L2,34z"/>
</svg>
